<?xml version="1.0" encoding="UTF-8"?>
<svg version="1.1" xmlns="http://www.w3.org/2000/svg" width="512" height="512">
<path d="M0 0 C1.89508602 -0.00542829 3.79016781 -0.01255489 5.6852417 -0.02124023 C10.80510666 -0.03939244 15.92464727 -0.03243963 21.04451752 -0.01972389 C26.41787043 -0.0095541 31.7911967 -0.01900058 37.16455078 -0.02526855 C46.1859228 -0.0325334 55.20716356 -0.0229878 64.22851562 -0.00390625 C74.63905163 0.01786019 85.04927421 0.010808 95.45980263 -0.01121187 C104.4189604 -0.02939903 113.37802416 -0.03190799 122.33719444 -0.0214572 C127.67897042 -0.01524049 133.02059936 -0.01433631 138.36236572 -0.02760315 C143.38584215 -0.03920935 148.40891685 -0.03104909 153.43235016 -0.00802612 C155.26927272 -0.00276444 157.10622943 -0.00420895 158.94313812 -0.01307678 C173.12103165 -0.07517983 184.39123202 1.27824445 195.1171875 11.51757812 C205.23070573 22.1117388 206.55774764 32.50885112 206.37130737 46.55361938 C205.98416988 60.39057046 204.4509839 74.18674497 203.12118268 87.95810485 C202.69686993 92.37353157 202.28386598 96.79001811 201.86936951 101.20637512 C201.17425949 108.59552307 200.47151857 115.98391138 199.76342773 123.37182617 C198.85447551 132.85589311 197.95857877 142.34114763 197.06659031 151.82682323 C196.29697415 160.00991466 195.52133367 168.1924334 194.74477649 176.37486863 C194.4961917 178.99701365 194.24846185 181.6192384 194.0008564 184.24147606 C193.61283298 188.34681527 193.22105199 192.45177937 192.82631683 196.5564785 C192.68199129 198.06286096 192.53886885 199.56935924 192.39702415 201.07597733 C192.20361582 203.12786294 192.00584311 205.1792813 191.80690002 207.2306366 C191.69720666 208.37919223 191.58751329 209.52774786 191.47449589 210.71110821 C191.1171875 213.51757812 191.1171875 213.51757812 190.1171875 216.51757812 C204.38263208 216.43340615 218.64796508 216.33804859 232.91324997 216.23005104 C239.53801145 216.180219 246.16275799 216.13388811 252.78759766 216.09570312 C259.1872978 216.0586846 265.58686883 216.01228041 271.98645782 215.95951462 C274.42150851 215.94105842 276.85658679 215.92591851 279.29167938 215.91423416 C282.7163958 215.89722082 286.14082211 215.86815057 289.56542969 215.83642578 C290.56021835 215.83426559 291.55500702 215.83210541 292.5799408 215.82987976 C305.410258 215.67918435 319.06319819 213.99955244 328.6171875 204.51757812 C331.96751926 200.16509434 332.93623469 194.78824749 334.16015625 189.52929688 C335.1171875 186.51757812 335.1171875 186.51757812 338.1171875 184.51757812 C347.40680794 182.94009541 355.72884804 188.46805409 363.11328125 193.59960938 C382.41416348 208.79392092 394.50469039 229.9617078 397.90823364 254.3561554 C398.34413594 258.86513719 398.23739657 263.39437312 398.21484375 267.91992188 C398.21272133 269.53647423 398.21272133 269.53647423 398.21055603 271.1856842 C398.20498361 274.60884441 398.19243618 278.03193787 398.1796875 281.45507812 C398.17466894 283.78385322 398.17010665 286.11262934 398.16601562 288.44140625 C398.15502321 294.1334861 398.13831264 299.82552734 398.1171875 305.51757812 C399.29655884 305.97463135 399.29655884 305.97463135 400.49975586 306.44091797 C402.96480162 307.45489538 404.6437454 308.45147077 406.6796875 310.14257812 C407.23785156 310.58859375 407.79601562 311.03460938 408.37109375 311.49414062 C414.44830963 318.53664136 414.69665183 325.24186007 414.63476562 334.16894531 C414.64527954 336.04373062 414.64527954 336.04373062 414.65600586 337.95639038 C414.67054097 341.36604912 414.66720838 344.77473001 414.65448952 348.18433285 C414.64430536 351.7688362 414.65377096 355.35330004 414.66003418 358.93780518 C414.6672987 364.95991437 414.65775844 370.98182696 414.63867188 377.00390625 C414.61694483 383.93859388 414.62392864 390.87281025 414.6459775 397.8074863 C414.66421326 403.78489639 414.66664899 409.76216573 414.65622282 415.7395947 C414.6500274 419.299098 414.64904107 422.85838095 414.66236877 426.41786957 C414.67622098 430.39497223 414.65694492 434.37156087 414.63476562 438.34863281 C414.64286255 439.50851715 414.65095947 440.66840149 414.65930176 441.86343384 C414.51817105 455.61170726 409.34645696 469.60796129 399.9296875 479.83398438 C389.07153879 489.91989406 375.81846997 496.86150461 360.81912231 496.77154541 C360.01094807 496.77466539 359.20277382 496.77778537 358.37010944 496.7809999 C355.67651451 496.78894303 352.98314718 496.78267064 350.28955078 496.77636719 C348.35240548 496.77907873 346.41526122 496.78264058 344.4781189 496.7869873 C339.22600473 496.79609536 333.97396925 496.79257323 328.72185373 496.78622913 C323.21942339 496.78115952 317.71699971 496.7858634 312.21456909 496.78900146 C302.97262363 496.79263891 293.73071014 496.78784844 284.48876953 496.77832031 C273.81478882 496.76744264 263.14088456 496.77095725 252.46690571 496.78197312 C243.29386941 496.79105997 234.12085608 496.79232424 224.94781673 496.78709579 C219.47306305 496.78398295 213.99834525 496.78354774 208.5235939 496.79016876 C203.37388929 496.79596168 198.22428283 496.79190971 193.07458878 496.78038025 C191.1884477 496.77774379 189.30229831 496.77848136 187.41616058 496.78290558 C184.83373687 496.78840282 182.25162409 496.78147652 179.66921997 496.77154541 C178.92980262 496.77600685 178.19038527 496.7804683 177.42856133 496.78506494 C173.55184536 496.7563168 170.1573994 496.34367727 166.39518547 495.37670517 C162.5433378 494.43507318 160.73172546 494.75896797 157.1171875 496.51757812 C154.0567503 496.77484703 154.0567503 496.77484703 150.57145691 496.78500366 C149.92762804 496.78953478 149.28379917 496.79406589 148.62046033 496.79873431 C146.47110229 496.8113569 144.32199834 496.80975936 142.17260742 496.80810547 C140.6282163 496.81409211 139.08382817 496.82089796 137.53944397 496.82846069 C133.34923786 496.84611508 129.15911345 496.85081586 124.96887374 496.85209227 C122.34909134 496.85351485 119.72932964 496.85778649 117.10955238 496.8630867 C107.96454171 496.88158576 98.81958931 496.88975755 89.67456055 496.88818359 C81.15906334 496.88698252 72.64381973 496.90807844 64.12838668 496.93967092 C56.81016259 496.96585115 49.49202124 496.97655014 42.1737507 496.97527277 C37.8061289 496.97476361 33.43873248 496.98042114 29.07115746 497.00162888 C24.9613004 497.02104058 20.85188299 497.02111593 16.74201012 497.00659561 C15.23761857 497.00450997 13.73319929 497.00919387 12.22885513 497.02131653 C3.07262428 497.09029493 -3.92986488 496.85787891 -11.125 490.55273438 C-11.66382813 489.90175781 -12.20265625 489.25078125 -12.7578125 488.58007812 C-13.31210937 487.93167969 -13.86640625 487.28328125 -14.4375 486.61523438 C-17.55490168 482.09078924 -18.11198919 478.37267464 -17.95469666 472.92799377 C-17.92431353 471.55439986 -17.8943784 470.18079598 -17.86481285 468.80718422 C-17.84546456 468.06852851 -17.82611627 467.3298728 -17.80618167 466.56883359 C-16.48947169 411.91706581 -20.60353369 357.94763595 -25.76171875 303.60742188 C-25.84660708 302.71131795 -25.93149542 301.81521402 -26.01895612 300.89195544 C-28.21101261 277.75498533 -30.47144023 254.62491979 -32.76168668 231.49748385 C-34.08555108 218.12534521 -35.39505563 204.75186539 -36.69311523 191.37719727 C-36.78544937 190.42589933 -36.87778351 189.4746014 -36.97291566 188.49447625 C-37.98319336 178.08229002 -38.99011108 167.66978136 -39.99428463 157.25700474 C-40.08266906 156.34062854 -40.17105349 155.42425235 -40.26211623 154.48010718 C-40.98097727 147.02661153 -40.98097727 147.02661153 -41.32172417 143.48995001 C-42.34428933 132.87819262 -43.37669101 122.26750579 -44.42812466 111.65856773 C-45.08273 105.05252219 -45.73067507 98.44584737 -46.37358923 91.8386538 C-46.74268273 88.0494628 -47.11527672 84.26070355 -47.49763298 80.472826 C-48.82412439 67.31390552 -50.12129816 54.19036345 -50.15733337 40.95118713 C-50.15979744 40.07467686 -50.1622615 39.19816658 -50.16480023 38.29509538 C-50.03208778 27.41855283 -46.38617388 19.3775349 -38.8828125 11.51757812 C-27.34370938 0.50198819 -15.1038073 -0.0729149 0 0 Z M-26.51171875 24.15820312 C-31.96582987 30.20372388 -33.20165946 35.01232631 -33.0703125 43.01757812 C-33.06966797 43.76394531 -33.06902344 44.5103125 -33.06835938 45.27929688 C-33.03654224 49.27411485 -32.68174492 52.52291601 -31.8828125 56.51757812 C40.7171875 56.51757812 113.3171875 56.51757812 188.1171875 56.51757812 C189.81343116 48.03635981 191.41422137 35.89216189 186.51953125 28.15820312 C180.61756181 21.25339208 175.10647676 17.79190401 166.1171875 16.51757812 C163.67093473 16.42667975 161.22252081 16.38706867 158.77458191 16.38386536 C157.6983594 16.38046702 157.6983594 16.38046702 156.60039502 16.37700003 C154.20778256 16.37069429 151.81522725 16.37148719 149.42260742 16.37231445 C147.70235623 16.36932082 145.98210572 16.36591781 144.26185608 16.36213684 C139.59646302 16.35331328 134.9310883 16.35095941 130.2656877 16.35032105 C127.34856905 16.3496096 124.43145504 16.34747346 121.51433754 16.34482384 C111.33076304 16.33557573 101.14720161 16.33148827 90.96362305 16.33227539 C81.48197568 16.33287598 72.00038524 16.32232639 62.51875228 16.30653173 C54.36908615 16.29344129 46.2194386 16.28809213 38.06976205 16.2887308 C33.20643729 16.28898535 28.34316312 16.28615776 23.47984886 16.27555275 C18.90388432 16.26584652 14.3280185 16.26580988 9.7520504 16.27306938 C8.07715205 16.2741121 6.40224747 16.271771 4.72735977 16.26570892 C-12.26415199 15.85775119 -12.26415199 15.85775119 -26.51171875 24.15820312 Z M-30.8828125 72.51757812 C-30.2228125 77.79757813 -29.5628125 83.07757813 -28.8828125 88.51757812 C41.7371875 88.51757812 112.3571875 88.51757812 185.1171875 88.51757812 C185.7771875 83.23757812 186.4371875 77.95757812 187.1171875 72.51757812 C115.1771875 72.51757812 43.2371875 72.51757812 -30.8828125 72.51757812 Z M-27.8828125 104.51757812 C-23.46723553 152.2551954 -23.46723553 152.2551954 -19.04492188 199.9921875 C-18.44875712 206.42211407 -17.85263709 212.85204478 -17.2565918 219.28198242 C-17.18188217 220.08790469 -17.10717255 220.89382695 -17.03019899 221.7241711 C-15.8230827 234.74652152 -14.61849266 247.76910444 -13.4148301 260.79177449 C-12.18010445 274.14991103 -10.94267702 287.50779528 -9.70272487 300.8654477 C-8.93728417 309.1122537 -8.17396836 317.35925077 -7.41334295 325.60650232 C-6.89202435 331.25681158 -6.36808896 336.90687431 -5.8420691 342.55674783 C-5.53836116 345.8196598 -5.2362203 349.08270376 -4.93640327 352.34597588 C-4.61160697 355.87914295 -4.28245462 359.41187729 -3.9521637 362.9445343 C-3.8106224 364.50142415 -3.8106224 364.50142415 -3.66622168 366.08976632 C-3.53260777 367.50427616 -3.53260777 367.50427616 -3.39629459 368.94736195 C-3.32073025 369.76338094 -3.2451659 370.57939993 -3.16731173 371.42014676 C-2.92352839 373.7051719 -2.92352839 373.7051719 -1.8828125 376.51757812 C40.3571875 376.51757812 82.5971875 376.51757812 126.1171875 376.51757812 C126.4471875 358.36757813 126.7771875 340.21757812 127.1171875 321.51757812 C131.63029611 312.4913609 131.63029611 312.4913609 134.6171875 310.14257812 C135.184375 309.68109375 135.7515625 309.21960938 136.3359375 308.74414062 C138.19308822 307.46531316 140.09404849 306.50665669 142.1171875 305.51757812 C142.12083313 304.84043259 142.12447876 304.16328705 142.12823486 303.46562195 C142.17026098 296.37542209 142.23974665 289.28585747 142.32470703 282.19604492 C142.35281703 279.55515924 142.37408078 276.91419099 142.38818359 274.27319336 C142.40975061 270.46230089 142.45647452 266.65239093 142.5078125 262.84179688 C142.50904114 261.67363937 142.51026978 260.50548187 142.51153564 259.30192566 C142.71938774 247.49262515 146.17619622 237.39815235 154.1171875 228.51757812 C158.79558557 224.47432681 163.17651261 221.75148987 169.1171875 220.08007812 C170.4371875 219.23445313 171.7571875 218.38882813 173.1171875 217.51757812 C177.8112463 179.96510771 180.62083986 142.20043597 184.1171875 104.51757812 C114.1571875 104.51757812 44.1971875 104.51757812 -27.8828125 104.51757812 Z M348.1171875 205.51757812 C347.71628906 206.14664063 347.31539062 206.77570313 346.90234375 207.42382812 C338.58647505 219.94477329 328.32726508 227.505565 313.5453167 231.09654236 C308.63180786 231.94854107 303.66686951 231.80895369 298.69360352 231.8046875 C297.46818848 231.81152054 296.24277344 231.81835358 294.98022461 231.82539368 C292.32891455 231.83894558 289.67786686 231.84901216 287.0265522 231.85310364 C282.82694731 231.85985897 278.62750025 231.88166163 274.42796326 231.90563965 C265.51190848 231.95446003 256.5958203 231.98687395 247.6796875 232.01757812 C238.0550078 232.05073165 228.4303905 232.08678005 218.80580658 232.14170885 C214.63855053 232.16493294 210.4714049 232.1787669 206.30409062 232.18520355 C203.09274384 232.19258078 199.88146886 232.21258777 196.67016602 232.23046875 C194.95623909 232.2289959 194.95623909 232.2289959 193.20768738 232.22749329 C183.21692756 232.30478386 173.69254586 233.10119128 166.19921875 240.38085938 C159.07437058 248.18146634 158.99578128 253.09585901 158.1171875 264.51757812 C231.7071875 264.51757812 305.2971875 264.51757812 381.1171875 264.51757812 C381.1171875 246.17557463 374.41376292 230.12903488 362.1171875 216.51757812 C361.51777344 215.84855469 360.91835938 215.17953125 360.30078125 214.49023438 C356.59667122 210.57067275 352.91851903 207.96723707 348.1171875 205.51757812 Z M158.1171875 280.51757812 C158.1171875 288.43757813 158.1171875 296.35757812 158.1171875 304.51757812 C232.0371875 304.51757812 305.9571875 304.51757812 382.1171875 304.51757812 C382.1171875 296.59757812 382.1171875 288.67757813 382.1171875 280.51757812 C308.1971875 280.51757812 234.2771875 280.51757812 158.1171875 280.51757812 Z M144.1171875 323.51757812 C141.08420337 328.02935149 141.83740949 333.93740257 141.85839844 339.17602539 C141.8548938 340.24987991 141.85138916 341.32373444 141.84777832 342.43013 C141.83897452 345.98148054 141.84480843 349.53263179 141.8515625 353.08398438 C141.85021477 355.55915871 141.84827334 358.03433279 141.84576416 360.50950623 C141.84281415 365.70208247 141.84710411 370.89458995 141.85644531 376.0871582 C141.86779802 382.7188625 141.86130611 389.35040416 141.84930038 395.98210239 C141.84204288 401.09786687 141.84438825 406.21359338 141.84955597 411.32935905 C141.85088389 413.77280637 141.84927502 416.2162572 141.84459686 418.65970039 C141.83947228 422.09101482 141.84732651 425.52207356 141.85839844 428.95336914 C141.85434998 429.94965332 141.85030151 430.9459375 141.84613037 431.97241211 C141.9329765 446.62715328 144.65067501 458.57509311 154.875 469.47460938 C164.87709974 478.58802081 176.55489289 480.63403824 189.68011475 480.65129089 C190.39718857 480.65355645 191.11426239 480.65582201 191.85306573 480.65815622 C194.2324643 480.66443689 196.61180504 480.6636707 198.99121094 480.6628418 C200.70688957 480.66583702 202.42256754 480.66924038 204.13824463 480.67301941 C208.78306021 480.68182714 213.42785735 480.68419618 218.07268047 480.6848352 C220.97944771 480.68554758 223.8862103 480.68768548 226.79297638 480.69033241 C236.94759924 480.69957548 247.10220901 480.70366864 257.25683594 480.70288086 C266.69983892 480.70228049 276.14278471 480.71282691 285.58577323 480.72862452 C293.71174758 480.741731 301.83770331 480.74706345 309.96368814 480.74642545 C314.80863474 480.74617136 319.65353048 480.74897335 324.49846649 480.7596035 C329.0588722 480.76933679 333.61917897 480.76932805 338.17958832 480.76208687 C339.84516546 480.76104747 341.51074894 480.76336521 343.17631531 480.76944733 C360.00500766 480.82687814 374.26541948 479.77509946 387.07421875 467.75976562 C397.17255887 456.67669253 398.26246594 443.73512132 398.27832031 429.42333984 C398.28328522 428.33940948 398.28825012 427.25547913 398.29336548 426.13870239 C398.3078992 422.57488356 398.31477203 419.01110914 398.3203125 415.44726562 C398.32606827 412.96200561 398.33182595 410.4767456 398.33758545 407.9914856 C398.34806834 402.79168492 398.3539297 397.59189959 398.35742188 392.39208984 C398.36292119 385.72956209 398.38699126 379.06730246 398.41539383 372.40482903 C398.43400803 367.27645266 398.43922502 362.14812547 398.44075775 357.01971817 C398.44378418 354.56292733 398.45181233 352.10613735 398.46494293 349.64937973 C398.48198821 346.21710381 398.48012738 342.78532836 398.47363281 339.35302734 C398.4828476 338.33988464 398.49206238 337.32674194 398.5015564 336.28289795 C398.47035084 331.02100939 398.33974109 326.92380023 395.1171875 322.51757812 C390.46285755 319.88202428 385.63690138 320.23544088 380.44496155 320.25688171 C379.46487025 320.25305617 378.48477896 320.24923062 377.47498792 320.24528915 C374.18777934 320.2349626 370.90074553 320.23895068 367.61352539 320.24291992 C365.25801939 320.23857328 362.90251481 320.23339029 360.54701233 320.22743225 C354.14626734 320.21402632 347.74558133 320.21346533 341.34482503 320.21599555 C337.34746446 320.2172784 333.35010957 320.21465842 329.35275078 320.21100807 C328.68907387 320.21041288 328.02539696 320.20981769 327.34160862 320.20920447 C325.99333068 320.20799271 324.64505274 320.20677858 323.2967748 320.20556209 C310.65412897 320.19468699 298.01150983 320.19684895 285.3688625 320.20294694 C273.80458431 320.20811651 262.24039034 320.19685956 250.67612881 320.17784872 C238.79950324 320.15847416 226.92291752 320.15021362 215.04627603 320.15397197 C208.37941403 320.15588454 201.71261321 320.15312661 195.04576302 320.13925743 C188.77735586 320.12670538 182.5091176 320.12859844 176.24071312 320.14166832 C173.93888416 320.14403932 171.63704341 320.14128079 169.33522797 320.1330452 C166.19542034 320.12262057 163.05618393 320.13064429 159.91639709 320.14335632 C158.54698718 320.1322949 158.54698718 320.1322949 157.14991242 320.12101001 C152.06263186 320.16440292 148.51561499 320.66600797 144.1171875 323.51757812 Z M-1.8828125 392.51757812 C-1.8828125 397.79757812 -1.8828125 403.07757813 -1.8828125 408.51757812 C40.3571875 408.51757812 82.5971875 408.51757812 126.1171875 408.51757812 C126.1171875 403.23757813 126.1171875 397.95757812 126.1171875 392.51757812 C83.8771875 392.51757812 41.6371875 392.51757812 -1.8828125 392.51757812 Z M-1.8828125 424.51757812 C-4.41394137 452.46919857 -4.41394137 452.46919857 1.1171875 478.51757812 C5.09878727 480.96233557 9.02167706 480.74941486 13.60546875 480.71289062 C14.30866745 480.71006073 15.01186615 480.70723083 15.7363739 480.70431519 C17.96765642 480.69317963 20.19852767 480.6680881 22.4296875 480.64257812 C23.94856188 480.63253973 25.4674426 480.62341538 26.98632812 480.61523438 C30.69674671 480.59326226 34.40692692 480.55877859 38.1171875 480.51757812 C38.13177002 479.4427417 38.14635254 478.36790527 38.16137695 477.26049805 C38.2193364 473.27383096 38.29656879 469.28773012 38.37963867 465.30151367 C38.41289922 463.5760212 38.44092769 461.85041963 38.46362305 460.12475586 C38.49714903 457.64454647 38.54946156 455.16533782 38.60546875 452.68554688 C38.61185867 451.91357468 38.6182486 451.14160248 38.62483215 450.34623718 C38.77013255 445.05720669 38.77013255 445.05720669 40.21281433 442.81401062 C43.1061496 440.84432636 45.5476242 441.13595376 49.01953125 441.12939453 C49.71740753 441.12413757 50.41528381 441.11888062 51.13430786 441.11346436 C53.4413287 441.10025967 55.74765963 441.10900358 58.0546875 441.11914062 C59.65747205 441.11712001 61.26025571 441.11420868 62.86303711 441.11044312 C66.222257 441.10601915 69.5812376 441.112453 72.94042969 441.12646484 C77.24825589 441.14355697 81.5555214 441.13371615 85.86332703 441.11574745 C89.17301668 441.10491147 92.4825732 441.10835506 95.79226685 441.11613083 C97.38070746 441.11813336 98.96916013 441.11567169 100.55758667 441.10869217 C102.77699846 441.10108049 104.99549984 441.11267667 107.21484375 441.12939453 C108.47820557 441.13178131 109.74156738 441.13416809 111.04321289 441.1366272 C114.1171875 441.51757812 114.1171875 441.51757812 116.02156067 442.81401062 C117.93981321 445.79666184 117.60043124 449.24545542 117.62890625 452.68554688 C117.64685745 453.48035965 117.66480865 454.27517242 117.68330383 455.09407043 C117.7374572 457.63101913 117.77131778 460.16777919 117.8046875 462.70507812 C117.83785624 464.42580753 117.87234549 466.14651203 117.90820312 467.8671875 C117.99567223 472.08401225 118.05569403 476.29997425 118.1171875 480.51757812 C126.0371875 480.51757812 133.9571875 480.51757812 142.1171875 480.51757812 C140.1371875 477.87757813 138.1571875 475.23757813 136.1171875 472.51757812 C134.79909274 470.2008505 133.54300265 467.84716078 132.3671875 465.45507812 C131.79484375 464.30910156 131.2225 463.163125 130.6328125 461.98242188 C125.00448538 449.11560188 126.70623786 440.42193788 126.1171875 424.51757812 C83.8771875 424.51757812 41.6371875 424.51757812 -1.8828125 424.51757812 Z M54.1171875 456.51757812 C54.1171875 464.43757813 54.1171875 472.35757812 54.1171875 480.51757812 C69.9571875 480.51757812 85.7971875 480.51757812 102.1171875 480.51757812 C102.1171875 472.59757812 102.1171875 464.67757813 102.1171875 456.51757812 C86.2771875 456.51757812 70.4371875 456.51757812 54.1171875 456.51757812 Z " fill="#B33F49" transform="translate(73.8828125,7.482421875)"/>
<path d="M0 0 C0.73646759 -0.00710495 1.47293518 -0.0142099 2.23171997 -0.02153015 C35.92341064 -0.27272243 69.65950382 3.51558412 95.0703125 28.203125 C104.06563782 37.79813868 106.50608731 47.88049409 106.28125 60.67578125 C105.79038025 72.45907344 98.69397908 81.02460639 90.32421875 88.828125 C71.11348362 104.62691489 44.66776361 112.24862392 19.98828125 112.40625 C19.24903412 112.41330963 18.50978699 112.42036926 17.74813843 112.42764282 C-12.88587551 112.65390058 -12.88587551 112.65390058 -25.98828125 109.203125 C-26.78008789 109.00444824 -27.57189453 108.80577148 -28.38769531 108.60107422 C-48.13427347 103.54513217 -67.77113193 95.44712221 -79.98828125 78.203125 C-86.15050107 67.45133521 -87.90047747 56.32637442 -85.33984375 44.109375 C-79.9746126 29.61866524 -66.51643608 18.71891036 -52.98828125 12.203125 C-36.26354362 4.91644587 -18.31397514 0.11764722 0 0 Z " fill="#F3B1AF" transform="translate(333.98828125,343.796875)"/>
<path d="M0 0 C0.73646759 -0.00710495 1.47293518 -0.0142099 2.23171997 -0.02153015 C35.92341064 -0.27272243 69.65950382 3.51558412 95.0703125 28.203125 C104.06563782 37.79813868 106.50608731 47.88049409 106.28125 60.67578125 C105.79038025 72.45907344 98.69397908 81.02460639 90.32421875 88.828125 C71.11348362 104.62691489 44.66776361 112.24862392 19.98828125 112.40625 C19.24903412 112.41330963 18.50978699 112.42036926 17.74813843 112.42764282 C-12.88587551 112.65390058 -12.88587551 112.65390058 -25.98828125 109.203125 C-26.78008789 109.00444824 -27.57189453 108.80577148 -28.38769531 108.60107422 C-48.13427347 103.54513217 -67.77113193 95.44712221 -79.98828125 78.203125 C-86.15050107 67.45133521 -87.90047747 56.32637442 -85.33984375 44.109375 C-79.9746126 29.61866524 -66.51643608 18.71891036 -52.98828125 12.203125 C-36.26354362 4.91644587 -18.31397514 0.11764722 0 0 Z M-63.98828125 40.203125 C-68.89431015 46.46891801 -70.89342155 52.24543315 -69.98828125 60.203125 C-66.4672929 71.85683102 -58.3311499 78.05108456 -48.09375 83.83984375 C-18.61980931 99.17556387 20.07990492 100.67488624 51.61328125 90.84765625 C65.56442574 86.07917327 80.31440193 79.37275299 88.01171875 66.203125 C90.48984666 60.77484481 91.21675417 54.77914904 89.2890625 49.05859375 C82.27275388 34.20219938 67.42601433 27.53889504 52.79296875 21.98046875 C16.72209547 10.00238835 -35.43741732 12.17308943 -63.98828125 40.203125 Z " fill="#B3404A" transform="translate(333.98828125,343.796875)"/>
<path d="M0 0 C2.99122956 0.67747618 4.02667033 2.14898948 6.03515625 4.4609375 C7.37321553 6.86205887 8.590284 9.21899197 9.7578125 11.69921875 C10.271091 12.76332222 10.271091 12.76332222 10.79473877 13.84892273 C11.90386233 16.15328418 13.0009765 18.46313143 14.09765625 20.7734375 C14.85958829 22.36425907 15.62220612 23.95475235 16.38549805 25.54492188 C17.9038558 28.71102944 19.4175671 31.87929453 20.92773438 35.04931641 C22.75273291 38.8765208 24.5996788 42.69230087 26.45703125 46.50390625 C27.42066717 48.48953759 28.38421675 50.47521084 29.34765625 52.4609375 C29.77248291 53.32887939 30.19730957 54.19682129 30.63500977 55.09106445 C34.80508872 63.75421486 38.80459355 72.18187992 38.53515625 81.9609375 C38.52234619 82.68796875 38.50953613 83.415 38.49633789 84.1640625 C38.1071157 94.58643941 34.38924353 103.01964761 27.03515625 110.4609375 C16.95275892 118.85668844 5.44288818 122.18777762 -7.59375 121.27734375 C-17.63024929 119.71467853 -28.18964798 114.48593759 -34.546875 106.46484375 C-40.18141383 98.55455445 -42.20779808 91.80039371 -42.40234375 82.0859375 C-42.42474121 81.40273437 -42.44713867 80.71953125 -42.47021484 80.015625 C-42.41087522 66.72354879 -34.01979554 54.05924111 -28.27734375 42.4609375 C-26.97403977 39.81736328 -25.67238862 37.17298516 -24.37179565 34.52807617 C-23.5124861 32.78136142 -22.65159617 31.03542322 -21.78909302 29.2902832 C-19.61435307 24.87757842 -17.48266987 20.45042166 -15.41943359 15.984375 C-15.01323288 15.1085376 -14.60703217 14.2327002 -14.18852234 13.33032227 C-13.41950191 11.66497101 -12.6575791 9.99631796 -11.90388489 8.32397461 C-11.56072739 7.58155518 -11.21756989 6.83913574 -10.86401367 6.07421875 C-10.42045784 5.09642456 -10.42045784 5.09642456 -9.96794128 4.09887695 C-7.53155158 0.12054117 -4.27669 0.18128551 0 0 Z " fill="#B3404A" transform="translate(153.96484375,159.5390625)"/>
<path d="M0 0 C0.66 0 1.32 0 2 0 C4.31291114 4.74566822 6.62402198 9.49220767 8.93359375 14.23950195 C9.71664922 15.84845629 10.50016418 17.45718709 11.28417969 19.06567383 C13.52588537 23.66518375 15.75938597 28.26848878 17.97845459 32.87896729 C18.63814958 34.2486907 19.29968141 35.61753166 19.96343994 36.98529053 C20.82204647 38.75853604 21.66919376 40.53731688 22.515625 42.31640625 C22.98516602 43.29681885 23.45470703 44.27723145 23.93847656 45.28735352 C26.31364908 51.35693537 25.72435939 56.75822868 23.4375 62.75 C20.51063268 68.5626558 16.16785098 72.25562334 10.25 74.875 C3.21614101 77.12909381 -3.5748101 77.00745495 -10.3125 73.9375 C-15.92569913 70.77840224 -19.5544217 66.95686471 -22.375 61.1875 C-24.18215129 51.97102845 -22.5449431 45.6671184 -18.25 37.4375 C-17.24809971 35.43519505 -16.24682167 33.43257865 -15.24609375 31.4296875 C-14.71870605 30.39038086 -14.19131836 29.35107422 -13.64794922 28.28027344 C-10.78510394 22.5817269 -8.05794213 16.8182591 -5.3125 11.0625 C-4.28842192 8.92806791 -3.26374201 6.79392439 -2.23828125 4.66015625 C-1.80555908 3.75918213 -1.37283691 2.85820801 -0.92700195 1.92993164 C-0.62109131 1.2930542 -0.31518066 0.65617676 0 0 Z " fill="#F3B0AE" transform="translate(151,188)"/>
</svg>
