<svg width="512" height="512" viewBox="0 0 512 512" fill="none" xmlns="http://www.w3.org/2000/svg">
<path d="M37.5 93L56 267L65 362V450L70.5 491.5L120.5 499H210.5H318.5H399L466 483.5L476.5 456.5V327.5L466 319V294L461 238.5L438 212.5L416 206L406.5 222L380.5 233H257V222L271.5 46L257 19.5H120.5H50.5L29 34L37.5 93Z" fill="#270E0E" stroke="black"/>
<path d="M73.8835 7.48255C75.7786 7.47712 77.6737 7.47 79.5688 7.46131C84.6887 7.44316 89.8082 7.45011 94.9281 7.46283C100.301 7.473 105.675 7.46355 111.048 7.45728C120.069 7.45002 129.091 7.45956 138.112 7.47865C148.523 7.50041 158.933 7.49336 169.343 7.47134C178.303 7.45315 187.262 7.45064 196.221 7.4611C201.563 7.46731 206.904 7.46822 212.246 7.45495C217.269 7.44334 222.292 7.4515 227.316 7.47453C229.153 7.47979 230.99 7.47834 232.827 7.46948C247.005 7.40737 258.275 8.7608 269.001 19.0001C279.114 29.5943 280.441 39.9914 280.255 54.0362C279.868 67.8731 278.335 81.6693 277.005 95.4407C276.58 99.8561 276.167 104.273 275.753 108.689C275.058 116.078 274.355 123.466 273.647 130.854C272.738 140.338 271.842 149.824 270.95 159.309C270.181 167.492 269.405 175.675 268.628 183.857C268.38 186.48 268.132 189.102 267.884 191.724C267.496 195.829 267.105 199.934 266.71 204.039C266.566 205.545 266.422 207.052 266.281 208.559C266.087 210.61 265.889 212.662 265.69 214.713C265.581 215.862 265.471 217.01 265.358 218.194C265.001 221 265.001 221 264.001 224C278.266 223.916 292.532 223.821 306.797 223.713C313.422 223.663 320.046 223.616 326.671 223.578C333.071 223.541 339.47 223.495 345.87 223.442C348.305 223.424 350.74 223.408 353.175 223.397C356.6 223.38 360.024 223.351 363.449 223.319C364.444 223.317 365.439 223.315 366.464 223.312C379.294 223.162 392.947 221.482 402.501 212C405.851 207.648 406.82 202.271 408.044 197.012C409.001 194 409.001 194 412.001 192C421.29 190.423 429.612 195.951 436.997 201.082C456.298 216.276 468.388 237.444 471.792 261.839C472.228 266.348 472.121 270.877 472.098 275.402C472.096 277.019 472.096 277.019 472.094 278.668C472.089 282.091 472.076 285.514 472.063 288.938C472.058 291.266 472.054 293.595 472.05 295.924C472.039 301.616 472.022 307.308 472.001 313C473.18 313.457 473.18 313.457 474.383 313.923C476.848 314.937 478.527 315.934 480.563 317.625C481.121 318.071 481.68 318.517 482.255 318.977C488.332 326.019 488.58 332.724 488.518 341.651C488.529 343.526 488.529 343.526 488.54 345.439C488.554 348.849 488.551 352.257 488.538 355.667C488.528 359.251 488.537 362.836 488.544 366.42C488.551 372.442 488.541 378.464 488.522 384.486C488.5 391.421 488.507 398.355 488.53 405.29C488.548 411.267 488.55 417.245 488.54 423.222C488.534 426.782 488.533 430.341 488.546 433.9C488.56 437.878 488.54 441.854 488.518 445.831C488.526 446.991 488.535 448.151 488.543 449.346C488.402 463.094 483.23 477.091 473.813 487.317C462.955 497.402 449.702 504.344 434.703 504.254C433.894 504.257 433.086 504.26 432.254 504.264C429.56 504.271 426.867 504.265 424.173 504.259C422.236 504.262 420.299 504.265 418.362 504.27C413.11 504.279 407.858 504.275 402.605 504.269C397.103 504.264 391.601 504.268 386.098 504.272C376.856 504.275 367.614 504.27 358.372 504.261C347.698 504.25 337.024 504.254 326.35 504.265C317.177 504.274 308.004 504.275 298.831 504.27C293.357 504.267 287.882 504.266 282.407 504.273C277.257 504.278 272.108 504.274 266.958 504.263C265.072 504.26 263.186 504.261 261.3 504.265C258.717 504.271 256.135 504.264 253.553 504.254C252.813 504.259 252.074 504.263 251.312 504.268C247.435 504.239 244.041 503.826 240.279 502.859C236.427 501.918 234.615 502.242 231.001 504C227.94 504.257 227.94 504.257 224.455 504.268C223.811 504.272 223.167 504.277 222.504 504.281C220.355 504.294 218.206 504.292 216.056 504.291C214.512 504.297 212.967 504.303 211.423 504.311C207.233 504.329 203.043 504.333 198.852 504.335C196.233 504.336 193.613 504.34 190.993 504.346C181.848 504.364 172.703 504.372 163.558 504.371C155.043 504.37 146.527 504.391 138.012 504.422C130.694 504.448 123.376 504.459 116.057 504.458C111.69 504.457 107.322 504.463 102.955 504.484C98.8448 504.504 94.7354 504.504 90.6256 504.489C89.1212 504.487 87.6167 504.492 86.1124 504.504C76.9562 504.573 69.9537 504.34 62.7585 498.035C62.2197 497.384 61.6809 496.733 61.1257 496.063C60.5714 495.414 60.0171 494.766 59.446 494.098C56.3286 489.573 55.7716 485.855 55.9289 480.411C55.9592 479.037 55.9892 477.663 56.0187 476.29C56.0381 475.551 56.0574 474.812 56.0774 474.051C57.3941 419.4 53.28 365.43 48.1218 311.09C48.0369 310.194 47.9521 309.298 47.8646 308.375C45.6725 285.238 43.4121 262.107 41.1219 238.98C39.798 225.608 38.4885 212.234 37.1904 198.86C37.0981 197.908 37.0058 196.957 36.9106 195.977C35.9004 185.565 34.8934 175.152 33.8893 164.74C33.8009 163.823 33.7125 162.907 33.6214 161.963C32.9026 154.509 32.9026 154.509 32.5618 150.973C31.5393 140.361 30.5069 129.75 29.4554 119.141C28.8008 112.535 28.1529 105.928 27.51 99.3212C27.1409 95.532 26.7683 91.7433 26.3859 87.9554C25.0594 74.7965 23.7623 61.6729 23.7262 48.4337C23.7238 47.5572 23.7213 46.6807 23.7188 45.7776C23.8515 34.9011 27.4974 26.8601 35.0007 19.0001C46.5398 7.98454 58.7797 7.40964 73.8835 7.48255ZM47.3718 31.6408C41.9177 37.6863 40.6819 42.4949 40.8132 50.5001C40.8139 51.2465 40.8145 51.9929 40.8152 52.7618C40.847 56.7567 41.2018 60.0055 42.0007 64.0001C114.601 64.0001 187.201 64.0001 262.001 64.0001C263.697 55.5189 265.298 43.3747 260.403 35.6408C254.501 28.7359 248.99 25.2745 240.001 24.0001C237.554 23.9092 235.106 23.8696 232.658 23.8664C231.582 23.863 231.582 23.863 230.484 23.8596C228.091 23.8532 225.699 23.854 223.306 23.8549C221.586 23.8519 219.866 23.8485 218.145 23.8447C213.48 23.8359 208.815 23.8335 204.149 23.8329C201.232 23.8322 198.315 23.83 195.398 23.8274C185.214 23.8181 175.031 23.814 164.847 23.8148C155.366 23.8154 145.884 23.8049 136.402 23.7891C128.253 23.776 120.103 23.7706 111.953 23.7713C107.09 23.7715 102.227 23.7687 97.3634 23.7581C92.7874 23.7484 88.2116 23.7484 83.6356 23.7556C81.9607 23.7567 80.2858 23.7543 78.6109 23.7483C61.6194 23.3403 61.6194 23.3403 47.3718 31.6408ZM43.0007 80.0001C43.6607 85.2801 44.3207 90.5601 45.0007 96.0001C115.621 96.0001 186.241 96.0001 259.001 96.0001C259.661 90.7201 260.321 85.4401 261.001 80.0001C189.061 80.0001 117.121 80.0001 43.0007 80.0001ZM46.0007 112C50.4163 159.738 50.4163 159.738 54.8386 207.475C55.4348 213.905 56.0309 220.335 56.627 226.765C56.7017 227.57 56.7764 228.376 56.8533 229.207C58.0605 242.229 59.2651 255.252 60.4687 268.274C61.7034 281.632 62.9409 294.99 64.1808 308.348C64.9463 316.595 65.7096 324.842 66.4702 333.089C66.9915 338.739 67.5155 344.389 68.0415 350.039C68.3452 353.302 68.6473 356.565 68.9471 359.829C69.2719 363.362 69.6011 366.894 69.9314 370.427C70.0729 371.984 70.0729 371.984 70.2173 373.572C70.3509 374.987 70.3509 374.987 70.4873 376.43C70.5628 377.246 70.6384 378.062 70.7162 378.903C70.96 381.188 70.96 381.188 72.0007 384C114.241 384 156.481 384 200.001 384C200.331 365.85 200.661 347.7 201.001 329C205.514 319.974 205.514 319.974 208.501 317.625C209.068 317.164 209.635 316.702 210.219 316.227C212.077 314.948 213.978 313.989 216.001 313C216.004 312.323 216.008 311.646 216.012 310.948C216.054 303.858 216.123 296.768 216.208 289.679C216.236 287.038 216.258 284.397 216.272 281.756C216.293 277.945 216.34 274.135 216.391 270.324C216.393 269.156 216.394 267.988 216.395 266.784C216.603 254.975 220.06 244.881 228.001 236C232.679 231.957 237.06 229.234 243.001 227.563C244.321 226.717 245.641 225.871 247.001 225C251.695 187.448 254.504 149.683 258.001 112C188.041 112 118.081 112 46.0007 112ZM422.001 213C421.6 213.629 421.199 214.258 420.786 214.906C412.47 227.427 402.211 234.988 387.429 238.579C382.515 239.431 377.55 239.292 372.577 239.287C371.352 239.294 370.126 239.301 368.864 239.308C366.212 239.322 363.561 239.332 360.91 239.336C356.71 239.342 352.511 239.364 348.312 239.388C339.395 239.437 330.479 239.469 321.563 239.5C311.939 239.533 302.314 239.569 292.689 239.624C288.522 239.647 284.355 239.661 280.188 239.668C276.976 239.675 273.765 239.695 270.554 239.713C268.84 239.712 268.84 239.712 267.091 239.71C257.1 239.787 247.576 240.584 240.083 247.863C232.958 255.664 232.879 260.578 232.001 272C305.591 272 379.181 272 455.001 272C455.001 253.658 448.297 237.612 436.001 224C435.401 223.331 434.802 222.662 434.184 221.973C430.48 218.053 426.802 215.45 422.001 213ZM232.001 288C232.001 295.92 232.001 303.84 232.001 312C305.921 312 379.841 312 456.001 312C456.001 304.08 456.001 296.16 456.001 288C382.081 288 308.161 288 232.001 288ZM218.001 331C214.968 335.512 215.721 341.42 215.742 346.659C215.738 347.732 215.735 348.806 215.731 349.913C215.723 353.464 215.728 357.015 215.735 360.567C215.734 363.042 215.732 365.517 215.729 367.992C215.726 373.185 215.731 378.377 215.74 383.57C215.751 390.201 215.745 396.833 215.733 403.465C215.726 408.58 215.728 413.696 215.733 418.812C215.734 421.255 215.733 423.699 215.728 426.142C215.723 429.574 215.731 433.005 215.742 436.436C215.738 437.432 215.734 438.428 215.73 439.455C215.817 454.11 218.534 466.058 228.759 476.957C238.761 486.071 250.438 488.117 263.564 488.134C264.281 488.136 264.998 488.138 265.737 488.141C268.116 488.147 270.495 488.146 272.875 488.145C274.59 488.148 276.306 488.152 278.022 488.156C282.667 488.164 287.311 488.167 291.956 488.167C294.863 488.168 297.77 488.17 300.677 488.173C310.831 488.182 320.986 488.186 331.14 488.185C340.583 488.185 350.026 488.195 359.469 488.211C367.595 488.224 375.721 488.23 383.847 488.229C388.692 488.229 393.537 488.232 398.382 488.242C402.942 488.252 407.503 488.252 412.063 488.245C413.729 488.244 415.394 488.246 417.06 488.252C433.889 488.309 448.149 487.258 460.958 475.242C471.056 464.159 472.146 451.218 472.162 436.906C472.167 435.822 472.172 434.738 472.177 433.621C472.191 430.057 472.198 426.494 472.204 422.93C472.21 420.445 472.215 417.959 472.221 415.474C472.232 410.274 472.237 405.074 472.241 399.875C472.246 393.212 472.271 386.55 472.299 379.887C472.318 374.759 472.323 369.631 472.324 364.502C472.327 362.045 472.335 359.589 472.348 357.132C472.366 353.7 472.364 350.268 472.357 346.836C472.366 345.822 472.376 344.809 472.385 343.765C472.354 338.504 472.223 334.406 469.001 330C464.346 327.365 459.52 327.718 454.329 327.739C453.348 327.736 452.368 327.732 451.359 327.728C448.071 327.718 444.784 327.721 441.497 327.725C439.142 327.721 436.786 327.716 434.431 327.71C428.03 327.697 421.629 327.696 415.228 327.699C411.231 327.7 407.234 327.697 403.236 327.694C402.573 327.693 401.909 327.692 401.225 327.692C399.877 327.691 398.529 327.689 397.18 327.688C384.538 327.677 371.895 327.679 359.252 327.685C347.688 327.691 336.124 327.679 324.56 327.66C312.683 327.641 300.806 327.633 288.93 327.637C282.263 327.638 275.596 327.636 268.929 327.622C262.661 327.609 256.393 327.611 250.124 327.624C247.822 327.627 245.521 327.624 243.219 327.616C240.079 327.605 236.94 327.613 233.8 327.626C232.431 327.615 232.431 327.615 231.033 327.604C225.946 327.647 222.399 328.149 218.001 331ZM72.0007 400C72.0007 405.28 72.0007 410.56 72.0007 416C114.241 416 156.481 416 200.001 416C200.001 410.72 200.001 405.44 200.001 400C157.761 400 115.521 400 72.0007 400ZM72.0007 432C69.4696 459.952 69.4696 459.952 75.0007 486C78.9823 488.445 82.9052 488.232 87.489 488.195C88.1922 488.193 88.8954 488.19 89.6199 488.187C91.8512 488.176 94.0821 488.151 96.3132 488.125C97.8321 488.115 99.351 488.106 100.87 488.098C104.58 488.076 108.29 488.041 112.001 488C112.015 486.925 112.03 485.85 112.045 484.743C112.103 480.756 112.18 476.77 112.263 472.784C112.296 471.059 112.324 469.333 112.347 467.607C112.381 465.127 112.433 462.648 112.489 460.168C112.495 459.396 112.502 458.624 112.508 457.829C112.654 452.54 112.654 452.54 114.096 450.297C116.99 448.327 119.431 448.618 122.903 448.612C123.601 448.607 124.299 448.601 125.018 448.596C127.325 448.583 129.631 448.592 131.938 448.602C133.541 448.6 135.144 448.597 136.747 448.593C140.106 448.589 143.465 448.595 146.824 448.609C151.132 448.626 155.439 448.616 159.747 448.598C163.057 448.587 166.366 448.591 169.676 448.599C171.264 448.601 172.853 448.598 174.441 448.591C176.661 448.584 178.879 448.595 181.098 448.612C182.362 448.614 183.625 448.617 184.927 448.619C188.001 449 188.001 449 189.905 450.297C191.823 453.279 191.484 456.728 191.512 460.168C191.53 460.963 191.548 461.758 191.567 462.577C191.621 465.114 191.655 467.65 191.688 470.188C191.721 471.908 191.756 473.629 191.792 475.35C191.879 479.567 191.939 483.783 192.001 488C199.921 488 207.841 488 216.001 488C214.021 485.36 212.041 482.72 210.001 480C208.683 477.683 207.427 475.33 206.251 472.938C205.678 471.792 205.106 470.646 204.516 469.465C198.888 456.598 200.59 447.904 200.001 432C157.761 432 115.521 432 72.0007 432ZM128.001 464C128.001 471.92 128.001 479.84 128.001 488C143.841 488 159.681 488 176.001 488C176.001 480.08 176.001 472.16 176.001 464C160.161 464 144.321 464 128.001 464Z" fill="#B33F49"/>
<path d="M333.988 343.797C334.724 343.79 335.461 343.783 336.219 343.775C369.911 343.524 403.647 347.313 429.058 372C438.053 381.595 440.494 391.677 440.269 404.473C439.778 416.256 432.682 424.822 424.312 432.625C405.101 448.424 378.656 456.046 353.976 456.203C353.237 456.21 352.498 456.217 351.736 456.225C321.102 456.451 321.102 456.451 308 453C307.208 452.801 306.416 452.603 305.6 452.398C285.854 447.342 266.217 439.244 253.999 422C247.837 411.248 246.087 400.123 248.648 387.906C254.013 373.416 267.471 362.516 281 356C297.724 348.713 315.674 343.915 333.988 343.797Z" fill="#F3B1AF"/>
<path d="M333.988 343.797C334.724 343.79 335.461 343.783 336.219 343.775C369.911 343.524 403.647 347.313 429.058 372C438.053 381.595 440.494 391.677 440.269 404.473C439.778 416.256 432.682 424.822 424.312 432.625C405.101 448.424 378.656 456.046 353.976 456.203C353.237 456.21 352.498 456.217 351.736 456.225C321.102 456.451 321.102 456.451 308 453C307.208 452.801 306.416 452.603 305.6 452.398C285.854 447.342 266.217 439.244 253.999 422C247.837 411.248 246.087 400.123 248.648 387.906C254.013 373.416 267.471 362.516 281 356C297.724 348.713 315.674 343.915 333.988 343.797ZM270 384C265.093 390.266 263.094 396.042 264 404C267.52 415.654 275.657 421.848 285.894 427.637C315.368 442.973 354.068 444.472 385.601 434.645C399.552 429.876 414.302 423.17 421.999 410C424.478 404.572 425.205 398.576 423.277 392.856C416.261 377.999 401.414 371.336 386.781 365.777C350.71 353.799 298.55 355.97 270 384Z" fill="#B3404A"/>
<path d="M153.964 159.539C156.956 160.217 157.991 161.688 160 164C161.338 166.401 162.555 168.758 163.722 171.238C164.235 172.302 164.235 172.302 164.759 173.388C165.868 175.692 166.965 178.002 168.062 180.312C168.824 181.903 169.587 183.494 170.35 185.084C171.868 188.25 173.382 191.418 174.892 194.588C176.717 198.416 178.564 202.231 180.421 206.043C181.385 208.029 182.349 210.014 183.312 212C183.737 212.868 184.162 213.736 184.599 214.63C188.769 223.293 192.769 231.721 192.5 241.5C192.487 242.227 192.474 242.954 192.461 243.703C192.071 254.126 188.354 262.559 181 270C170.917 278.396 159.407 281.727 146.371 280.816C136.334 279.254 125.775 274.025 119.417 266.004C113.783 258.094 111.757 251.339 111.562 241.625C111.54 240.942 111.517 240.259 111.494 239.555C111.553 226.263 119.945 213.598 125.687 202C126.99 199.356 128.292 196.712 129.593 194.067C130.452 192.32 131.313 190.574 132.175 188.829C134.35 184.417 136.482 179.989 138.545 175.523C138.951 174.648 139.357 173.772 139.776 172.869C140.545 171.204 141.307 169.535 142.06 167.863C142.404 167.121 142.747 166.378 143.1 165.613C143.544 164.635 143.544 164.635 143.996 163.638C146.433 159.66 149.688 159.72 153.964 159.539Z" fill="#B3404A"/>
<path d="M150.999 188C151.659 188 152.319 188 152.999 188C155.312 192.746 157.623 197.492 159.933 202.24C160.716 203.848 161.5 205.457 162.284 207.066C164.525 211.665 166.759 216.268 168.978 220.879C169.638 222.249 170.299 223.618 170.963 224.985C171.821 226.759 172.669 228.537 173.515 230.316C173.985 231.297 174.454 232.277 174.938 233.287C177.313 239.357 176.724 244.758 174.437 250.75C171.51 256.563 167.167 260.256 161.249 262.875C154.216 265.129 147.425 265.007 140.687 261.938C135.074 258.778 131.445 254.957 128.624 249.188C126.817 239.971 128.454 233.667 132.749 225.438C133.751 223.435 134.753 221.433 135.753 219.43C136.281 218.39 136.808 217.351 137.351 216.28C140.214 210.582 142.941 204.818 145.687 199.062C146.711 196.928 147.736 194.794 148.761 192.66C149.194 191.759 149.627 190.858 150.072 189.93C150.378 189.293 150.684 188.656 150.999 188Z" fill="#F3B0AE"/>
</svg>
